<?xml version="1.0" encoding="utf-8"?>
<!-- Generator: Adobe Illustrator 21.1.0, SVG Export Plug-In . SVG Version: 6.00 Build 0)  -->
<svg version="1.1" id="Layer_1" xmlns="http://www.w3.org/2000/svg" xmlns:xlink="http://www.w3.org/1999/xlink" x="0px" y="0px"
	 viewBox="0 0 339 216" style="enable-background:new 0 0 339 216;" xml:space="preserve">
<style type="text/css">
	.st0{fill:none;stroke:#EF3742;stroke-width:2.7168;stroke-miterlimit:10;}
	.st1{fill:none;stroke:#EF3742;stroke-width:3;stroke-miterlimit:10;}
	.st2{font-family:'Replica-Light';}
	.st3{font-size:83.9466px;}
	.st4{font-family:'Replica-Bold';}
	.st5{fill:none;stroke:#000000;stroke-width:2.3203;stroke-miterlimit:10;}
	.st6{fill:none;stroke:#9ED9F2;stroke-width:3;stroke-miterlimit:10;}
	.st7{fill:#9ED9F2;}
	.st8{fill-rule:evenodd;clip-rule:evenodd;fill:#9ED9F2;}
	.st9{fill:#FFFFFF;}
	.st10{fill-rule:evenodd;clip-rule:evenodd;}
	.st11{fill-rule:evenodd;clip-rule:evenodd;fill:#FFFFFF;}
	.st12{fill:#FAD505;}
	.st13{fill:#26A4CB;}
	.st14{fill:none;stroke:#26A4CB;stroke-width:3.3396;stroke-miterlimit:10;}
	.st15{fill:none;stroke:#26A4CB;stroke-width:3.8614;stroke-miterlimit:10;}
	.st16{fill:none;stroke:#26A4CB;stroke-width:1.6698;stroke-miterlimit:10;}
	.st17{fill:none;stroke:#26A4CB;stroke-width:2.609;stroke-miterlimit:10;}
	.st18{fill:none;stroke:#26A4CB;stroke-width:3.5483;stroke-miterlimit:10;}
	.st19{fill:none;stroke:#26A4CB;stroke-width:3.6781;stroke-miterlimit:10;}
	.st20{fill:#CDDD60;}
	.st21{fill:#EF3742;}
	.st22{fill:none;stroke:#EE428A;stroke-width:1.0151;stroke-miterlimit:10;}
	.st23{fill:none;stroke:#EE428A;stroke-width:3.0452;stroke-miterlimit:10;}
	.st24{fill:none;stroke:#000000;stroke-width:1.0151;stroke-miterlimit:10;}
	.st25{clip-path:url(#SVGID_2_);fill:none;stroke:#EE428A;stroke-width:1.0151;stroke-miterlimit:10;}
	.st26{fill:#EE428A;}
	.st27{fill:none;stroke:#000000;stroke-width:3.3396;stroke-miterlimit:10;}
	.st28{clip-path:url(#SVGID_4_);fill:none;stroke:#EE428A;stroke-width:1.0151;stroke-miterlimit:10;}
	.st29{clip-path:url(#SVGID_4_);fill:none;stroke:#000000;stroke-width:1.0151;stroke-miterlimit:10;}
</style>
<g>
	<text transform="matrix(1 0 0 1 22.3107 79.3101)" class="st2 st3">the </text>
	<text transform="matrix(1 0 0 1 160.8224 79.3101)"><tspan x="0" y="0" class="st4 st3">D</tspan><tspan x="57.9" y="0" class="st4 st3">O</tspan><tspan x="120.9" y="0" class="st4 st3"> </tspan></text>
	<g>
		<path d="M94.4,180.1c-1.8,0-3.3-0.4-4.5-1.3c-1.2-0.8-2.2-2-2.8-3.5c-0.9-2.4-0.9-5,0.1-7.9c1-3,2.9-5.8,5.7-8.3
			c2-1.8,4.3-3.2,7.1-4.2c2.8-1,5.8-2,8.9-2.9l1.3-0.3v-1.9c0-2.5-0.2-4.8-0.5-6.9c-0.4-2.1-0.9-3.9-1.6-5.4
			c-0.7-1.5-1.5-2.7-2.4-3.6c-0.9-0.9-1.9-1.3-3-1.3c-1.5,0-2.9,0.4-4.3,1.3s-2.7,2-4,3.3c-1.3,1.3-2.5,2.9-3.6,4.5
			c-1.1,1.7-2.1,3.3-3,4.9c-1,1.8-1.9,3.6-2.7,5.3c-0.8,1.7-1.5,3.3-2,4.7c-0.6,1.4-1.1,2.9-1.8,4.7c-0.1,0.4-0.3,0.7-0.6,0.9
			c-0.3,0.2-0.7,0.3-1,0.3c-0.8-0.1-1.3-0.6-1.5-1.3c-0.6-2.9-1.2-6.5-1.8-11.1c-0.6-4.5-1.1-9.4-1.5-14.5c-0.2-0.3-0.2-0.6-0.1-0.9
			c-0.2-3.4-0.4-6.9-0.5-10.4c-0.1-4-0.1-7.8,0-11.3c0.1-3.5,0.4-6.7,0.8-9.5c1-6.9,2.6-11.9,5-14.9c1.8-2.3,4-3.4,6.5-3.4
			c2.1-0.1,4.1,0.7,6,2.4c1.8,1.6,3.3,3.8,4.3,6.6c1,2.9,1.3,5.9,1.2,9.2c-0.2,3.3-0.9,6.6-2.2,9.9c-0.7,2-1.6,3.9-2.7,5.8
			c-1.1,1.9-2.4,3.8-3.8,5.6c-1.5,2-3.1,3.8-5,5.7c-1.9,1.8-3.9,3.6-6.1,5.4c0.3,3.5,0.6,6.8,1,10c0.4,3.2,0.7,6.1,1.1,8.8
			c0.6-1.3,1.3-2.8,2-4.4c0.7-1.6,1.6-3.3,2.5-5c5.7-10.5,11.6-15.8,17.8-15.8c1.8,0,3.6,0.6,5.1,1.9c1.2,1.1,2.3,2.6,3.3,4.7
			c0.8,1.8,1.4,3.9,1.8,6.3c0.4,2.4,0.6,5,0.6,7.6v0.9c2.1-0.7,4.1-1.4,6-2.2c2-0.8,3.8-1.8,5.5-2.9c1.7-1.1,3.3-2.5,4.7-4.1
			c1.4-1.6,2.6-3.5,3.6-5.7c0.2-0.4,0.5-0.8,0.9-0.9c0.4-0.2,0.9-0.1,1.3,0.1c0.4,0.2,0.8,0.5,0.9,0.9c0.2,0.4,0.2,0.9,0,1.3
			c-1.2,2.6-2.6,4.9-4.3,6.8c-1.7,1.9-3.5,3.5-5.6,4.7c-2,1.3-4.2,2.4-6.5,3.3c-2.3,0.9-4.5,1.7-6.8,2.4c-0.3,2.9-0.8,5.7-1.5,8.4
			c-0.7,2.7-1.7,5.1-2.8,7.3c-1.6,3.1-3.6,5.6-6,7.4C100.6,179.1,97.7,180.1,94.4,180.1z M86.9,88.2L86.9,88.2c-1.6,0-2.9,0.7-4,2.2
			c-1,1.2-1.9,3-2.6,5.2c-0.7,2.2-1.3,4.9-1.7,8c-0.4,2.8-0.7,5.9-0.8,9.3c-0.1,3.4-0.2,7.1,0,11c0.1,1.2,0.1,2.5,0.1,3.7
			c0,1.2,0.1,2.5,0.2,3.8c3.6-3.1,6.6-6.2,9.1-9.5c2.5-3.2,4.4-6.6,5.7-10.1c0.8-2,1.3-3.9,1.6-5.6c0.3-1.7,0.4-3.3,0.4-4.7
			c0-1.4-0.1-2.7-0.4-3.8c-0.3-1.1-0.5-2-0.7-2.7c-0.8-2.1-1.8-3.8-3.2-5.1C89.4,88.7,88.2,88.2,86.9,88.2z M110,155.1
			c-0.1,0.1-0.1,0.1-0.2,0.1c-2.9,0.8-5.7,1.7-8.3,2.6c-2.6,0.9-4.7,2.2-6.4,3.7c-1.2,1.1-2.2,2.3-3,3.4c-0.8,1.2-1.4,2.3-1.7,3.4
			c-0.4,1.1-0.6,2.1-0.6,3.1c0,1,0.1,1.8,0.4,2.5c0.7,1.8,2.1,2.8,4.2,2.8c1.5,0,2.9-0.3,4.2-0.8c1.3-0.5,2.4-1.2,3.3-2
			c1-0.8,1.8-1.7,2.5-2.7c0.7-1,1.3-2,1.8-2.9c1-1.8,1.8-3.9,2.4-6.1C109.3,160,109.7,157.6,110,155.1z"/>
		<path d="M149.9,192.3c-3.2,0-6-1.5-8.5-4.6c-2.1-2.7-3.8-6.4-5.3-11.2c-1.2-4.3-2.2-9.2-2.8-14.9c-0.6-5.7-1-11.8-1-18.4
			c0-6.8,0.3-13.5,1-20c0.7-6.5,1.7-12.4,3-17.6c1.3-5.5,3-9.8,4.9-12.9c2.2-3.7,4.7-5.6,7.6-5.6c2.9,0,5.3,1.1,7.1,3.2
			c1.7,1.8,2.8,4.4,3.4,7.6c0.6,3.5,0.6,7.2-0.2,11.3c-0.7,4.1-2.1,8-4,11.9c-1.1,2.1-2.3,4.1-3.6,5.9c-1.3,1.8-2.8,3.5-4.4,5
			c-3.4,3.3-7.2,5.8-11.5,7.5v3.8c0,6.4,0.3,12.4,0.9,18c0.6,5.5,1.5,10.4,2.8,14.4c0.4,1.5,1,3.1,1.6,4.7c0.6,1.6,1.4,3,2.2,4.4
			c0.8,1.3,1.8,2.4,2.9,3.2c1.1,0.8,2.3,1.2,3.7,1.2c2.8,0,5.8-2.5,9.1-7.5c2.7-4.3,5.5-10.2,8.3-17.8c1.2-3.2,2.2-6.4,3.2-9.5
			c1-3.1,1.8-5.9,2.4-8.4c0.7-2.5,1.4-5.2,2.1-8.2c0.1-0.4,0.4-0.8,0.8-1.1c0.4-0.3,0.8-0.4,1.3-0.3c0.4,0.1,0.8,0.4,1.1,0.8
			c0.3,0.4,0.4,0.8,0.2,1.3c0,0.1-0.2,0.9-0.6,2.4c-0.4,1.5-0.9,3.6-1.6,6c-0.7,2.5-1.5,5.3-2.5,8.5c-1,3.2-2.1,6.4-3.2,9.7
			c-2.9,7.8-5.8,13.9-8.7,18.5c-0.9,1.3-1.8,2.5-2.6,3.6c-0.9,1.1-1.8,2-2.6,2.7C154.2,191.4,152,192.3,149.9,192.3z M148.9,90.3
			c-1.6,0-3.3,1.4-4.9,4.2c-1.7,2.8-3.1,6.7-4.3,11.8c-1.1,4.1-1.9,8.6-2.6,13.6c-0.6,5-1.1,10.2-1.3,15.7c3.5-1.6,6.6-3.7,9.4-6.5
			c2.8-2.8,5.1-6,7-9.7c1.8-3.5,3-7.1,3.7-10.8c0.7-3.7,0.7-7.2,0.2-10.2c-0.1-0.7-0.3-1.6-0.6-2.5c-0.3-1-0.7-1.8-1.3-2.6
			c-0.6-0.8-1.3-1.5-2.1-2.1C151.2,90.6,150.1,90.3,148.9,90.3z"/>
		<path d="M213.9,139.4c0.3,0.4,0.4,0.8,0.3,1.3c-0.1,0.5-0.3,0.9-0.7,1.1c-1.4,0.9-3,1.4-5,1.4l-1-0.1c-1.4-0.2-2.7-0.5-4.1-1.1
			c-1.4-0.6-2.8-1.2-4.2-1.9c-1.4-0.7-2.7-1.5-4-2.3c0.7,2.3,0.9,4.6,0.6,7.1c-0.2,1.7-0.6,3.3-1.3,4.8c-0.6,1.5-1.4,2.8-2.4,3.9
			c-2.3,2.7-5.2,3.8-8.7,3.4c-3.6-0.4-6.2-2.3-7.9-5.7c-1.4-2.9-1.9-6.2-1.5-9.8c0.4-3.4,1.6-6.2,3.4-8.5c1.1-1.3,2.3-2.2,3.7-2.8
			c1.4-0.6,2.8-0.8,4.4-0.6c1.1,0.1,2.2,0.4,3.2,0.9c0.9,0.2,1.9,0.6,3,1.2c1.1,0.6,2.4,1.4,4,2.4c1.3,0.8,2.6,1.7,4.1,2.6
			c1.4,0.9,2.9,1.6,4.3,2.2c1.4,0.6,2.8,1,4,1.1c1.3,0.1,2.4-0.1,3.3-0.8c0.4-0.2,0.8-0.3,1.3-0.3
			C213.3,138.8,213.7,139,213.9,139.4z M189.7,151.3c0.7-0.8,1.3-1.8,1.8-3c0.5-1.2,0.8-2.5,1-3.9c0.2-1.4,0.1-2.8-0.1-4.1
			c-0.2-1.3-0.6-2.5-1.2-3.6c-1.3-2.3-3.2-3.6-5.9-3.9c-1.1-0.1-2.1,0-3,0.5c-0.9,0.5-1.7,1.2-2.3,2c-0.6,0.9-1.2,1.8-1.6,3
			c-0.4,1.1-0.7,2.3-0.8,3.5c-0.4,3.1,0,5.7,1.2,7.9c1.1,2.3,2.8,3.6,5.2,3.8C186.2,153.8,188.1,153,189.7,151.3z"/>
		<path d="M247.4,141c0.4,0.2,0.7,0.5,0.8,1c0.1,0.4,0.1,0.9-0.2,1.3c-0.8,1.5-1.9,2.9-3.2,4.4c-1.4,1.5-3,3-4.8,4.5
			c-1.8,1.5-3.8,3.1-6,4.7c-2.2,1.6-4.4,3.2-6.7,4.9c-0.3,0.2-0.6,0.4-0.8,0.6v0.2c0.3,17.4-1.5,29.4-5.5,35.9
			c-1.6,2.6-3.4,4.8-5.4,6.5c-2,1.8-4.1,3.1-6.3,3.9c-1.8,0.7-3.7,1.1-5.6,1.1h-0.4c-2.1-0.1-3.9-0.6-5.5-1.4
			c-1.4-0.7-2.6-1.7-3.5-2.9c-0.9-1.2-1.6-2.6-2.1-4.1c-1-3.3-0.6-6.9,1.2-10.7c1.3-3,3.1-5.8,5.2-8.5c2.2-2.7,4.6-5.3,7.2-7.8
			c2.7-2.5,5.5-4.9,8.4-7.2c2.9-2.3,5.9-4.5,8.8-6.6c0-0.4,0-0.9,0-1.3c0-0.4,0-0.9-0.1-1.3c-0.1,0.2-0.2,0.4-0.3,0.6
			c-0.1,0.2-0.2,0.4-0.3,0.6c-1,1.5-1.9,2.4-2.9,2.9c-1,0.4-1.9,0.7-2.6,0.7c-0.2,0-0.4,0-0.5-0.1c-1.1-0.1-2.2-0.5-3.1-1.3
			c-1-0.7-1.8-1.7-2.6-3c-1.4-2.6-2-5.6-1.7-9c0.3-4,1.4-7.4,3.1-10.1c1.6-2.6,3.6-3.9,6-4.1c1.8-0.1,3.3,0.5,4.6,1.9l0.1,0.1h0.2
			c0.4-0.1,0.9,0.1,1.2,0.3c0.4,0.3,0.6,0.6,0.6,1.1c0,0.1,0,0.4,0.1,1s0.2,1.4,0.3,2.6c0.1,0.1,0.1,0.2,0.1,0.4
			c0.1,0.2,0.1,0.4,0.1,0.7c0.2,1.8,0.3,4,0.5,6.6c0.2,2.6,0.3,5.4,0.5,8.4c2-1.5,4-2.9,6-4.4c2-1.5,3.8-2.9,5.5-4.3
			c1.7-1.4,3.2-2.8,4.4-4.1c1.3-1.3,2.2-2.6,2.9-3.9c0.2-0.4,0.5-0.7,1-0.8C246.6,140.7,247,140.8,247.4,141z M218.2,196.7
			c1.7-2.9,3-7,3.9-12.3c0.9-5.4,1.2-11.9,1.1-19.6c-2.7,2-5.4,4.1-8,6.2c-2.7,2.1-5.2,4.3-7.6,6.6c-2.4,2.3-4.5,4.6-6.4,7.1
			c-1.9,2.4-3.4,5-4.6,7.6c-1.3,3-1.7,5.7-1.2,8.1c0.5,2.4,1.8,4.2,4,5.4c1.3,0.7,2.7,1,4.2,1c1.5,0,3-0.3,4.6-0.9
			c1.8-0.8,3.6-1.9,5.3-3.4C215.3,200.9,216.8,199,218.2,196.7z M222.4,147.3l-0.4-4.5c-0.4-1.3-0.9-2.4-1.6-3.1
			c-0.6-0.8-1.4-1.1-2.1-1c-1.2,0.1-2.5,1.1-3.7,3c-1.2,1.9-2,4.6-2.3,8.1c-0.1,1.4,0,2.7,0.2,3.9c0.3,1.2,0.6,2.2,1,3
			c0.4,0.8,0.9,1.5,1.5,2c0.6,0.5,1.1,0.7,1.7,0.8c0.6,0.1,1.2-0.2,1.7-0.6c0.5-0.5,0.9-0.9,1.3-1.4c0.4-0.7,0.9-1.8,1.4-3.3
			c0.5-1.5,0.9-3.6,1.2-6.3L222.4,147.3z"/>
	</g>
	<polyline class="st5" points="79.2,160.7 8.6,160.7 8.6,39.6 48,39.6 	"/>
	<polyline class="st5" points="276.1,39.6 326.7,39.6 327.8,161.2 226.8,161.2 	"/>
	<g>
		<path d="M235.6,14.7V7.7l0.4-0.6h29.8l0.4,0.6v7.1l-0.4,0.6H236L235.6,14.7z"/>
	</g>
</g>
</svg>
